<?xml version="1.0" encoding="UTF-8" standalone="no"?>
<svg
   xmlns:dc="http://purl.org/dc/elements/1.1/"
   xmlns:cc="http://creativecommons.org/ns#"
   xmlns:rdf="http://www.w3.org/1999/02/22-rdf-syntax-ns#"
   xmlns:svg="http://www.w3.org/2000/svg"
   xmlns="http://www.w3.org/2000/svg"
   viewBox="0 0 485.33894 220.83568"
   height="220.83568"
   width="485.33896"
   xml:space="preserve"
   id="svg555"
   version="1.1">
  <metadata
     id="metadata561">
    <rdf:RDF>
      <cc:Work
         rdf:about="">
        <dc:format>image/svg+xml</dc:format>
        <dc:type
           rdf:resource="http://purl.org/dc/dcmitype/StillImage" />
        <dc:title></dc:title>
      </cc:Work>
    </rdf:RDF>
  </metadata>
  <defs
     id="defs559">
    <clipPath
       id="clipPath573"
       clipPathUnits="userSpaceOnUse">
      <path
         id="path571"
         d="M 0,0 H 800 V 400 H 0 Z" />
    </clipPath>
    <clipPath
       id="clipPath589"
       clipPathUnits="userSpaceOnUse">
      <path
         id="path587"
         d="m 226.4907,159.995 h 80.35193 v 80.00998 H 226.4907 Z" />
    </clipPath>
    <clipPath
       id="clipPath603"
       clipPathUnits="userSpaceOnUse">
      <path
         id="path601"
         d="M 0,0 H 800 V 400 H 0 Z" />
    </clipPath>
    <clipPath
       id="clipPath617"
       clipPathUnits="userSpaceOnUse">
      <path
         id="path615"
         d="m 359.824,159.995 h 80.35193 v 80.00998 H 359.824 Z" />
    </clipPath>
    <clipPath
       id="clipPath637"
       clipPathUnits="userSpaceOnUse">
      <path
         id="path635"
         d="M 0,0 H 800 V 400 H 0 Z" />
    </clipPath>
    <clipPath
       id="clipPath651"
       clipPathUnits="userSpaceOnUse">
      <path
         id="path649"
         d="m 493.1574,159.995 h 80.35193 v 80.00998 H 493.1574 Z" />
    </clipPath>
    <clipPath
       id="clipPath665"
       clipPathUnits="userSpaceOnUse">
      <path
         id="path663"
         d="M 0,0 H 800 V 400 H 0 Z" />
    </clipPath>
  </defs>
  <g
     transform="matrix(1.3333333,0,0,-1.3333333,-300.66385,329.417)"
     id="g563">
    <g
       id="g565" />
    <g
       id="g567">
      <g
         clip-path="url(#clipPath573)"
         id="g569" />
    </g>
    <g
       transform="translate(7.4999933,-13.875004)"
       id="g850">
      <path
         d="m 295.0754,228.2878 c 15.6897,-15.6229 15.6897,-40.9527 0,-56.5756 -15.6897,-15.6229 -41.1277,-15.6229 -56.8174,0 -15.6897,15.6229 -15.6897,40.9527 0,56.5756 15.6897,15.6229 41.1277,15.6229 56.8174,0 z"
         style="fill:#d8f1ff;fill-opacity:1;fill-rule:nonzero;stroke:none"
         id="path577" />
      <g
         id="g579"
         transform="matrix(1,0,0,-1,226.4907,240.005)">
        <path
           d="m 68.58466,11.71719 c 15.68969,15.62292 15.68969,40.95268 0,56.5756 -15.68969,15.62292 -41.1277,15.62292 -56.81739,0 -15.689693,-15.62292 -15.689693,-40.95268 0,-56.5756 15.68969,-15.62292 41.1277,-15.62292 56.81739,0 z"
           style="fill:none;stroke:#0076ba;stroke-width:2;stroke-linecap:butt;stroke-linejoin:miter;stroke-miterlimit:4;stroke-dasharray:none;stroke-opacity:1"
           id="path581" />
      </g>
      <g
         id="g583">
        <g
           id="g585"
           clip-path="url(#clipPath589)">
          <g
             id="g591"
             transform="translate(252.2126,196.5868)">
            <text
               transform="scale(1,-1)"
               style="font-variant:normal;font-weight:normal;font-size:10px;font-family:Avenir;-inkscape-font-specification:Avenir-Book;writing-mode:lr-tb;fill:#004d80;fill-opacity:1;fill-rule:nonzero;stroke:none"
               id="text595"><tspan
                 x="0 8.8999996 14.83 20.940001 26.5"
                 y="0"
                 id="tspan593">Model</tspan></text>
          </g>
        </g>
      </g>
      <g
         id="g597">
        <g
           id="g599"
           clip-path="url(#clipPath603)">
          <path
             d="m 428.4087,228.2878 c 15.6897,-15.6229 15.6897,-40.9527 0,-56.5756 -15.6897,-15.6229 -41.1277,-15.6229 -56.8174,0 -15.6897,15.6229 -15.6897,40.9527 0,56.5756 15.6897,15.6229 41.1277,15.6229 56.8174,0 z"
             style="fill:#d8f1ff;fill-opacity:1;fill-rule:nonzero;stroke:none"
             id="path605" />
          <g
             id="g607"
             transform="matrix(1,0,0,-1,359.824,240.005)">
            <path
               d="m 68.58466,11.71719 c 15.68969,15.62292 15.68969,40.95268 0,56.5756 -15.68969,15.62292 -41.1277,15.62292 -56.81739,0 -15.689693,-15.62292 -15.689693,-40.95268 0,-56.5756 15.68969,-15.62292 41.1277,-15.62292 56.81739,0 z"
               style="fill:none;stroke:#0076ba;stroke-width:2;stroke-linecap:butt;stroke-linejoin:miter;stroke-miterlimit:4;stroke-dasharray:none;stroke-opacity:1"
               id="path609" />
          </g>
        </g>
      </g>
      <g
         id="g611">
        <g
           id="g613"
           clip-path="url(#clipPath617)">
          <g
             id="g619"
             transform="translate(375.8459,203.2275)">
            <text
               transform="scale(1,-1)"
               style="font-variant:normal;font-weight:normal;font-size:10px;font-family:Avenir;-inkscape-font-specification:Avenir-Book;writing-mode:lr-tb;fill:#004d80;fill-opacity:1;fill-rule:nonzero;stroke:none"
               id="text623"><tspan
                 x="0 7.04 12.97 18.530001 21.85 24.99 30.92 33.32 35.720001 41.279999 44.599998"
                 y="0"
                 id="tspan621">Controller/</tspan></text>
          </g>
          <g
             id="g625"
             transform="translate(389.3209,189.2275)">
            <text
               transform="scale(1,-1)"
               style="font-variant:normal;font-weight:normal;font-size:10px;font-family:Avenir;-inkscape-font-specification:Avenir-Book;writing-mode:lr-tb;fill:#004d80;fill-opacity:1;fill-rule:nonzero;stroke:none"
               id="text629"><tspan
                 x="0 6.1700001 8.5699997 14.13"
                 y="0"
                 id="tspan627">View</tspan></text>
          </g>
        </g>
      </g>
      <g
         id="g631">
        <g
           id="g633"
           clip-path="url(#clipPath637)">
          <path
             d="m 561.742,228.2878 c 15.6897,-15.6229 15.6897,-40.9527 0,-56.5756 -15.6896,-15.6229 -41.1277,-15.6229 -56.8174,0 -15.6896,15.6229 -15.6896,40.9527 0,56.5756 15.6897,15.6229 41.1278,15.6229 56.8174,0 z"
             style="fill:#d8f1ff;fill-opacity:1;fill-rule:nonzero;stroke:none"
             id="path639" />
          <g
             id="g641"
             transform="matrix(1,0,0,-1,493.1574,240.005)">
            <path
               d="m 68.58466,11.71719 c 15.68969,15.62292 15.68969,40.95268 0,56.5756 -15.68969,15.62292 -41.1277,15.62292 -56.81739,0 -15.689693,-15.62292 -15.689693,-40.95268 0,-56.5756 15.68969,-15.62292 41.1277,-15.62292 56.81739,0 z"
               style="fill:none;stroke:#0076ba;stroke-width:2;stroke-linecap:butt;stroke-linejoin:miter;stroke-miterlimit:4;stroke-dasharray:none;stroke-opacity:1"
               id="path643" />
          </g>
        </g>
      </g>
      <g
         id="g645">
        <g
           id="g647"
           clip-path="url(#clipPath651)">
          <g
             id="g653"
             transform="translate(522.6543,196.79)">
            <text
               transform="scale(1,-1)"
               style="font-variant:normal;font-weight:normal;font-size:10px;font-family:Avenir;-inkscape-font-specification:Avenir-Book;writing-mode:lr-tb;fill:#004d80;fill-opacity:1;fill-rule:nonzero;stroke:none"
               id="text657"><tspan
                 x="0 6.1700001 8.5699997 14.13"
                 y="0"
                 id="tspan655">View</tspan></text>
          </g>
        </g>
      </g>
      <g
         id="g659">
        <g
           id="g661"
           clip-path="url(#clipPath665)">
          <g
             id="g667"
             transform="matrix(1,0,0,-1,307.8345,200)">
            <path
               d="M 50.98958,0 C 35.99305,0 20.99653,0 6,0 H 5.5"
               style="fill:none;stroke:#007cbb;stroke-width:1;stroke-linecap:butt;stroke-linejoin:miter;stroke-miterlimit:4;stroke-dasharray:none;stroke-opacity:1"
               id="path669" />
          </g>
          <path
             d="m 313.8345,203 -6,-3 6,-3 z"
             style="fill:#007cbb;fill-opacity:1;fill-rule:nonzero;stroke:none"
             id="path671" />
          <g
             id="g673"
             transform="matrix(1,0,0,-1,441.1678,200)">
            <path
               d="m 45.48959,0 h -0.5 C 29.99306,0 14.99653,0 0,0"
               style="fill:none;stroke:#007cbb;stroke-width:1;stroke-linecap:butt;stroke-linejoin:miter;stroke-miterlimit:4;stroke-dasharray:none;stroke-opacity:1"
               id="path675" />
          </g>
          <path
             d="m 486.1574,197 6,3 -6,3 z"
             style="fill:#007cbb;fill-opacity:1;fill-rule:nonzero;stroke:none"
             id="path677" />
          <g
             id="g679"
             transform="matrix(1,0,0,-1,294.4496,246.5627)">
            <path
               d="m 73.95183,12.44499 -0.3953,-0.30617 C 49.3845,-5.330507 24.86583,-3.944219 0,16.29729"
               style="fill:none;stroke:#007cbb;stroke-width:1;stroke-linecap:butt;stroke-linejoin:miter;stroke-miterlimit:4;stroke-dasharray:2, 2;stroke-dashoffset:0;stroke-opacity:1"
               id="path681" />
          </g>
          <path
             d="m 366.1692,232.0521 6.5806,-1.3022 -2.9066,6.0458 z"
             style="fill:#007cbb;fill-opacity:1;fill-rule:nonzero;stroke:none"
             id="path683" />
          <g
             id="g685"
             transform="matrix(1,0,0,-1,428.9122,244.3125)">
            <path
               d="M 76.57342,14.09893 C 53.36973,-3.841275 29.47777,-4.660449 4.897537,11.64141 L 4.48869,11.9309"
               style="fill:none;stroke:#007cbb;stroke-width:1;stroke-linecap:butt;stroke-linejoin:miter;stroke-miterlimit:4;stroke-dasharray:2, 2;stroke-dashoffset:0;stroke-opacity:1"
               id="path687" />
          </g>
          <path
             d="m 432.0754,235.1189 -3.1632,-5.9156 6.6304,1.0189 z"
             style="fill:#007cbb;fill-opacity:1;fill-rule:nonzero;stroke:none"
             id="path689" />
          <g
             id="g691"
             transform="translate(253.5852,139.294)">
            <text
               transform="scale(1,-1)"
               style="font-variant:normal;font-weight:500;font-size:9px;font-family:Avenir;-inkscape-font-specification:Avenir-Medium;writing-mode:lr-tb;fill:#000000;fill-opacity:1;fill-rule:nonzero;stroke:none"
               id="text695"><tspan
                 x="0 8.1540003 13.5 18.999001 24.003"
                 y="0"
                 id="tspan693">Model</tspan></text>
          </g>
          <g
             id="g697"
             transform="translate(253.5852,139.294)" />
          <g
             id="g699"
             transform="translate(256.3302,127.294)">
            <text
               transform="scale(1,-1)"
               style="font-variant:normal;font-weight:500;font-size:9px;font-family:Avenir;-inkscape-font-specification:Avenir-Medium;writing-mode:lr-tb;fill:#000000;fill-opacity:1;fill-rule:nonzero;stroke:none"
               id="text703"><tspan
                 x="0 5.1659999 10.17 15.174"
                 y="0"
                 id="tspan701">Feed</tspan></text>
          </g>
          <g
             id="g705"
             transform="translate(256.3302,127.294)" />
          <g
             id="g707"
             transform="translate(253.3377,115.294)">
            <text
               transform="scale(1,-1)"
               style="font-variant:normal;font-weight:500;font-size:9px;font-family:Avenir;-inkscape-font-specification:Avenir-Medium;writing-mode:lr-tb;fill:#000000;fill-opacity:1;fill-rule:nonzero;stroke:none"
               id="text711"><tspan
                 x="0 6.336 9.6660004 12.996 15.156 19.493999 21.653999"
                 y="0"
                 id="tspan709">Article</tspan></text>
          </g>
          <g
             id="g713"
             transform="translate(358.8295,145.294)">
            <text
               transform="scale(1,-1)"
               style="font-variant:normal;font-weight:500;font-size:9px;font-family:Avenir;-inkscape-font-specification:Avenir-Medium;writing-mode:lr-tb;fill:#000000;fill-opacity:1;fill-rule:nonzero;stroke:none"
               id="text717"><tspan
                 x="0 6.336 13.167 15.327 20.493 25.497 30.500999 36 41.499001 46.502998 51.174 56.673 61.676998 65.007004 71.343002 76.842003"
                 y="0"
                 id="tspan715">CwlFeedReaderApp</tspan></text>
          </g>
          <g
             id="g719"
             transform="translate(358.8295,145.294)" />
          <g
             id="g721"
             transform="translate(373.5715,133.294)">
            <text
               transform="scale(1,-1)"
               style="font-variant:normal;font-weight:500;font-size:9px;font-family:Avenir;-inkscape-font-specification:Avenir-Medium;writing-mode:lr-tb;fill:#000000;fill-opacity:1;fill-rule:nonzero;stroke:none"
               id="text725"><tspan
                 x="0 6.336 11.682 16.686001 20.016001 25.02 30.024 33.354 38.862 41.021999 46.026001"
                 y="0"
                 id="tspan723">ContentView</tspan></text>
          </g>
          <g
             id="g727"
             transform="translate(373.5715,133.294)" />
          <g
             id="g729"
             transform="translate(376.2535,121.294)">
            <text
               transform="scale(1,-1)"
               style="font-variant:normal;font-weight:500;font-size:9px;font-family:Avenir;-inkscape-font-specification:Avenir-Medium;writing-mode:lr-tb;fill:#000000;fill-opacity:1;fill-rule:nonzero;stroke:none"
               id="text733"><tspan
                 x="0 6.6690001 11.673 15.003 19.674 21.834 23.993999 27.99 33.498001 35.658001 40.661999"
                 y="0"
                 id="tspan731">DetailsView</tspan></text>
          </g>
          <g
             id="g735"
             transform="translate(376.2535,121.294)" />
          <g
             id="g737"
             transform="translate(383.17,109.294)">
            <text
               transform="scale(1,-1)"
               style="font-variant:normal;font-weight:500;font-size:9px;font-family:Avenir;-inkscape-font-specification:Avenir-Medium;writing-mode:lr-tb;fill:#000000;fill-opacity:1;fill-rule:nonzero;stroke:none"
               id="text741"><tspan
                 x="0 4.671 6.8309999 10.827 14.157 19.665001 21.825001 26.829"
                 y="0"
                 id="tspan739">ListView</tspan></text>
          </g>
          <g
             id="g743"
             transform="translate(514.2129,139.294)">
            <text
               transform="scale(1,-1)"
               style="font-variant:normal;font-weight:500;font-size:9px;font-family:Avenir;-inkscape-font-specification:Avenir-Medium;writing-mode:lr-tb;fill:#000000;fill-opacity:1;fill-rule:nonzero;stroke:none"
               id="text747"><tspan
                 x="0 8.2349997 13.239 18.738001 24.246 26.406 31.41"
                 y="0"
                 id="tspan745">WebView</tspan></text>
          </g>
          <g
             id="g749"
             transform="translate(514.2129,139.294)" />
          <g
             id="g751"
             transform="translate(524.7474,127.294)">
            <text
               transform="scale(1,-1)"
               style="font-variant:normal;font-weight:500;font-size:9px;font-family:Avenir;-inkscape-font-specification:Avenir-Medium;writing-mode:lr-tb;fill:#000000;fill-opacity:1;fill-rule:nonzero;stroke:none"
               id="text755"><tspan
                 x="0 4.1669998 9.1709995 13.842"
                 y="0"
                 id="tspan753">Text</tspan></text>
          </g>
          <g
             id="g757"
             transform="translate(524.7474,127.294)" />
          <g
             id="g759"
             transform="translate(519.4914,115.294)">
            <text
               transform="scale(1,-1)"
               style="font-variant:normal;font-weight:500;font-size:9px;font-family:Avenir;-inkscape-font-specification:Avenir-Medium;writing-mode:lr-tb;fill:#000000;fill-opacity:1;fill-rule:nonzero;stroke:none"
               id="text763"><tspan
                 x="0 5.6700001 10.674 14.004 17.334 22.68"
                 y="0"
                 id="tspan761">Button</tspan></text>
          </g>
        </g>
      </g>
    </g>
  </g>
</svg>
